<svg width="218" height="434" xmlns="http://www.w3.org/2000/svg">

 <g>
  <title>background</title>
  <rect fill="none" id="canvas_background" height="436" width="220" y="-1" x="-1"/>
 </g>
 <g>
  <title>Layer 1</title>
  <g transform="rotate(90.0028, 108.336, 217.336)" id="svg_1">
   <path fill="#D80027" d="m69.470993,107.469002c-0.035995,0.000999 -0.150009,0.017998 -0.240005,0.019997c-0.877991,0.019005 -3.998001,0.094002 -5.699997,0.480003c-1.903,0.431 -3.806,1.017998 -5.479996,2.019997c-2.505005,1.5 -4.617004,3.640999 -6.559998,5.82c-1.622009,1.818001 -2.862015,3.944 -4.200012,5.980003c-0.537994,0.819 -1.231995,1.584 -1.519989,2.519997c-0.040009,0.129005 -0.093002,0.245003 -0.12001,0.380005c-31.256996,0.087997 -62.512993,0.309998 -93.759995,1.019997c-18.762001,0.626999 -37.167,10.052002 -47.440002,25.979996c-4.402,5.134003 -7.213997,11.197998 -8.479996,17.76001c-7.318001,19.752991 -4.191002,41.283997 -4.860001,61.899994c-0.621002,16.440002 2.830994,32.975006 10.279999,47.600006c8.659996,13.649994 21.606003,25.826996 38.16,28.299988c23.190998,4.821014 47.076,2.084015 70.579998,2.880005c11.853996,-0.026001 23.706001,-0.018005 35.560005,-0.019989c0.020004,0.084991 0.055008,0.15799 0.080002,0.23999c0.28801,0.936005 0.98201,1.700989 1.520004,2.519989c1.337997,2.036011 2.578003,4.162018 4.199997,5.980011c1.943008,2.179016 4.055008,4.320007 6.559998,5.820007c1.674011,1.002991 3.577011,1.588989 5.480011,2.019989c1.701996,0.38501 4.821991,0.460999 5.699997,0.480011c0.395004,0.080994 0.819992,0.010986 1.099991,-0.200012s0.368011,-0.419006 0.440002,-0.899994s-0.000992,-0.688995 -0.319992,-1.899994s-1.082001,-3.320007 -1.900009,-5.240021s-2.175995,-4.556976 -3.080002,-6.219971c-0.577988,-1.064026 -1.047989,-1.868011 -1.5,-2.600006c15.421005,0.006989 30.837997,0.006989 46.259995,0.019989c0.054001,0.071014 0.111008,0.14801 0.180008,0.220001c0.355988,0.375 0.873001,0.872009 1.860001,1.220001c0.987,0.347992 1.036987,0.25 4.039993,0.399994c3.003006,0.149994 10.612,0.097015 12.839996,-0.040009s2.625,-0.171997 3.720001,-0.599976c0.884003,-0.346008 1.544006,-0.512024 1.680008,-1.180023c23.496002,0.006012 47.005005,-0.020996 70.5,-0.119995c0.863983,0.292999 1.05899,0.21701 3.919983,0.360016c3.003021,0.149994 10.632019,0.096985 12.860016,-0.040009c1.837006,-0.113007 2.436005,-0.166992 3.199982,-0.420013c19.412018,-0.120972 38.82901,-0.304993 58.240021,-0.579987c13.574005,0.032013 27.063995,-8.428986 31.619995,-21.480011c11.638,-28.709991 11.428009,-60.540985 10.240021,-91.039993c-1.52002,-19.914001 -4.08902,-40.86499 -14.880005,-58.059998c-9.667999,-13.695 -28.300995,-14.099998 -43.480011,-14.040001c-14.294006,-0.149994 -28.583984,-0.207993 -42.880005,-0.239998c-0.485992,-0.063995 -1.078003,-0.119995 -2.059998,-0.18c-2.227997,-0.137001 -9.856995,-0.189995 -12.859985,-0.040001c-1.971008,0.098 -2.632996,0.098 -3.160004,0.18c-18.306,-0.004997 -36.613007,0.039001 -54.920013,0.040001c-5.438995,0.028999 -10.880997,0.042 -16.319992,0.060005c-0.113998,-0.706001 -0.796005,-0.867004 -1.699997,-1.220001c-1.095001,-0.428001 -1.492004,-0.463005 -3.720001,-0.600006s-9.837006,-0.189995 -12.839996,-0.039993c-3.003006,0.149994 -3.053009,0.051994 -4.040009,0.399994s-1.503998,0.845001 -1.860001,1.220001c-0.088989,0.094002 -0.177002,0.187004 -0.23999,0.279999c-15.421005,0.020004 -30.839005,0.039001 -46.26001,0.060005c0.471008,-0.758003 0.955002,-1.587006 1.559998,-2.700005c0.904007,-1.663994 2.262009,-4.298996 3.080002,-6.220001c0.818008,-1.919998 1.581009,-4.028999 1.900009,-5.239998s0.391998,-1.418999 0.319992,-1.900002c-0.071991,-0.480995 -0.160004,-0.688995 -0.440002,-0.899994c-0.190994,-0.144005 -0.451996,-0.210007 -0.720001,-0.220001c-0.04599,-0.001999 -0.093994,-0.001999 -0.139999,0l0,0zm52.580002,17.080002c0.569,-0.006004 1.215988,-0.006004 1.839996,0.019997c-0.887009,0.001999 -1.772995,-0.001999 -2.660004,0c0.282013,-0.011002 0.572006,-0.016998 0.820007,-0.019997zm161.619995,7.32c3.984009,-0.100006 8.475006,0.496994 10.899994,1.73999c5.937012,3.042999 9.497009,7.731003 10.880005,14.340012c0.450989,2.156998 1.527008,5.291992 2.380005,6.979996c2.537994,5.022003 4.873993,12.281998 4.660004,14.460007l-0.200012,2.019989l-1.97998,-1.860001c-1.088013,-1.019989 -2.950012,-3.953003 -4.120026,-6.519989c-6.772003,-14.861008 -15.815979,-23.517014 -29.599976,-28.360001c-1.199005,-0.421005 -1.190002,-0.468002 -0.060028,-1.300003c1.258026,-0.92601 4.041016,-1.421997 7.140015,-1.5l0,0zm-214.339996,1.259995c1.289001,-0.007996 2.761993,-0.002991 4.399994,0c10.917999,0.020996 29.102005,0.262009 48.160004,0.660004l13.600006,0.279999l5.299988,8.320007c2.911011,4.566986 5.376999,8.73999 5.480011,9.279999c0.184998,0.968994 0.135986,0.966995 -4.100006,0.899994c-2.360992,-0.037003 -8.514999,-0.212997 -13.660004,-0.399994c-14.53299,-0.528 -36.942993,-2.85701 -51.099991,-5.300003l-5.659988,-0.960007l-1.820007,-2.839996c-1.001999,-1.554993 -2.865997,-4.274994 -4.139999,-6.059998s-2.386993,-3.432999 -2.479996,-3.660004c-0.046997,-0.113998 2.153992,-0.195999 6.019989,-0.220001l0,0zm-127.579994,0.460007c1.039001,0 2.219002,-0.006012 3.560001,0c14.446003,0.059998 17.024998,1.168991 11.499996,4.899994c-3.191998,2.156006 -23.742996,14.638 -32.059998,19.479996c-7.071999,4.117004 -9.857002,6.488007 -13.019997,11.080002c-1.273003,1.848007 -3.207001,3.772003 -4.320007,4.300003c-2.066994,0.981003 -5.291992,1.268005 -6.019997,0.540009c-0.225998,-0.226013 -0.419998,-2.035004 -0.419998,-4.020004c0,-3.856003 1.170998,-6.737 5.400002,-13.400009c3.479996,-5.483002 10.249001,-13.164993 14.259995,-16.179993c2.052002,-1.542007 6.010002,-3.699997 8.800003,-4.779999c4.406998,-1.706009 5.043999,-1.919998 12.32,-1.919998l0,0zm217.500008,0.819992c1.649017,-0.003998 4.243988,0.059006 8.26001,0.160004c33.707001,0.848007 55.630981,1.593002 55.899994,1.880005c0.450989,0.479996 1.700012,8.212997 1.700012,10.539993c0,3.626007 0.28299,3.522995 -12.220001,4.180008c-8.365997,0.439987 -40.072998,1.427994 -47.620026,1.479996c-0.733978,0.005005 -1.540985,-1.451996 -4.659973,-8.400009c-2.074005,-4.618988 -3.916016,-8.751999 -4.080017,-9.179993c-0.177002,-0.462997 -0.028015,-0.654007 2.720001,-0.660004l0,0zm84.339996,4.839996c0.727997,-0.024002 1.628998,0.028992 2.779999,0.119995c4.51001,0.359009 15.212006,1.876007 15.799988,2.240005c1.263,0.780991 -5.238983,3.087997 -13.199982,4.699997c-5.925018,1.199997 -6.614014,1.270004 -8.080017,0.679993c-1.362,-0.547989 -1.631989,-2.194992 -0.779999,-4.759995c0.723999,-2.179993 1.296997,-2.908981 3.480011,-2.979996zm-238.720001,3.740005c1.924995,0 55.013,11.673004 64.220001,14.119995c6.207993,1.650009 17.613998,5.504013 25.339996,8.560013c17.578003,6.951996 26.570007,9.319992 35.440002,9.319992c6.751999,0 7.141998,0.179001 12.679993,6.100006l5.700012,6.099991l0,30.240005l0,30.259995l-5.560013,5.940002l-5.539993,5.920013l-10.759995,0.639984c-8.487,0.496002 -13.218002,1.58902 -22.440002,5.179993c-22.980011,8.949005 -37.944,13.313019 -65.839996,19.26001c-15.565994,3.317993 -29.534996,6.317017 -31.040009,6.660004c-2.204002,0.501984 -3.187996,-0.270996 -5.080002,-4c-2.908997,-5.735016 -9.306,-25.696014 -11.139999,-34.779999c-4.044998,-20.033005 -3.726997,-55.656006 0.639999,-73.220001c4.072006,-16.380005 11.416,-36.300003 13.380005,-36.300003l0,0zm285.200012,6.300003c3.394989,-0.166 4.423004,2.765991 8.119995,9.699997c10.054993,18.859009 13.098999,35.100998 12.160004,65c-0.737,23.458008 -2.731995,32.473007 -10.860016,49.000015c-7.082977,14.401978 -7.267975,14.5 -17.719971,9.519989c-4.738007,-2.256989 -11.808014,-5.300995 -15.700012,-6.76001s-7.079987,-2.875 -7.079987,-3.139984s1.929993,-4.292999 4.279999,-8.960022c7.376007,-14.64798 9.794006,-26.291992 9.720001,-46.819992c-0.075012,-20.548996 -2.244995,-30.755997 -9.679993,-45.519989c-2.460022,-4.884003 -4.29303,-9.025009 -4.080017,-9.200012s7.532013,-3.429993 16.26001,-7.23999c7.879974,-3.440002 11.939972,-5.451004 14.579987,-5.580002l0,0zm-387.220016,110.899994c0.487999,-0.042999 1.092003,0.041016 1.840004,0.220001c3.658997,0.873993 4.193001,1.29599 7.279999,5.540009c3.661995,5.035004 5.749001,6.700989 14.840004,11.959991c13.471996,7.792999 31.588997,19.144989 32.239998,20.200012c1.394997,2.261993 -0.264999,2.639984 -12.720001,2.779999c-10.284,0.11499 -12.234001,-0.022003 -15.040001,-1.040009c-9.380005,-3.402985 -16.845001,-9.752991 -23.880005,-20.320007c-5.177994,-7.776978 -6.402992,-10.619995 -6.419998,-14.859985c-0.011993,-3.106995 0.395004,-4.35202 1.860001,-4.480011l0,0zm409.439987,3.220001l0.179993,1.839996c0.21701,2.132019 -2.369995,10.221008 -4.559998,14.220001c-0.817993,1.493011 -1.901978,4.671997 -2.399994,7.059998c-2.119995,10.167023 -9.972992,16.473999 -20.26001,16.300018c-2.053009,-0.035004 -4.572998,-0.253998 -5.600006,-0.5s-2.401978,-0.752014 -3.059967,-1.119995c-1.119019,-0.626007 -1.075012,-0.708008 0.639984,-1.400024c7.987,-3.224976 12.380981,-5.898987 16.600006,-10.059998c5.036011,-4.966003 8.203003,-9.574982 12.299988,-17.940002c1.556,-3.177979 3.565002,-6.376984 4.480011,-7.099976l1.679993,-1.300018zm-147.919983,18.660004l8.720001,0.100006c10.584991,0.119995 31.398987,0.848999 42.660004,1.47998c6.709991,0.376007 8.358978,0.591003 8.799988,1.160004c0.75,0.96701 0.67099,4.787994 -0.220001,9.440002l-0.759979,3.899994l-1.960022,0.300018c-1.898987,0.286987 -24.574005,0.960999 -51.919983,1.540009c-9.473999,0.200989 -13.399017,0.14798 -13.279999,-0.180023c0.092987,-0.255981 1.919983,-4.35199 4.059998,-9.099976l3.899994,-8.640015l0,0zm-25.76001,0.179993c4.694992,-0.007996 7.73999,0.178986 7.73999,0.619995c0,0.570007 -9.584,16.057007 -10.619995,17.160004c-0.511002,0.542999 -11.651001,0.835999 -60.179993,1.559998l-12.700012,0.200012l1.780014,-2.460022c0.985001,-1.350983 2.975998,-4.280975 4.419998,-6.5c1.60199,-2.460999 2.988998,-4.117004 3.539993,-4.23999c4.928009,-1.10199 23.755005,-3.610992 35.479996,-4.73999c10.337021,-0.994995 22.715012,-1.587006 30.540009,-1.600006l0,0zm104.580017,5.279999c1.80899,0.024994 4.377014,0.466003 7.880005,1.26001c8.773987,1.987976 13.205994,3.947998 10.279999,4.559998c-2.820007,0.589996 -11.110992,1.605988 -15.220001,1.859985l-4.420013,0.26001l-0.879974,-1.440002c-0.482025,-0.792999 -1.002014,-2.208008 -1.160004,-3.140015c-0.394012,-2.333984 0.504974,-3.401978 3.519989,-3.359985l0,0z" id="path4400-3-2"/>
  </g>
 </g>
</svg>